<?xml version="1.0" encoding="UTF-8"?>
<svg id="Layer_2" data-name="Layer 2" xmlns="http://www.w3.org/2000/svg" viewBox="0 0 1890 1111.58">
  <defs>
    <style>
      .cls-1 {
        fill: #1d2b1d;
      }

      .cls-2 {
        fill: #fff;
      }

      .cls-3 {
        fill: #0d6036;
      }
    </style>
  </defs>
  <g id="Layer_1-2" data-name="Layer 1">
    <path class="cls-3" d="M399.92,311.42c2.05,34.66-4.63,67.78-10.05,100.83-16.41,99.96-37.91,198.42-59.57,296.85-20.46,92.98-43.47,185.04-64.94,277.65-3.15,13.61-5.59,27.47-8.86,41.03-4.05,16.78-14.26,26.3-27.82,26.33-20.36.05-38.86,8.33-57.86,14.97-24.83,8.68-49.72,17.53-75.97,10.1-10.93-3.1-21.65-7.54-32.69-9.74-22.18-4.43-41.38,1.53-53.69,27.11-1.2,2.5-2.23,5.37-5.11,4.55-3.36-.96-3.14-4.56-3.3-7.8-.93-18.76,11.96-41.85,28.11-50.38,12.72-6.72,26.1-8.66,39.77-7.96,41.03,2.1,81.07-4.42,120.02-20.5.63-.26,1.28-.39,1.92-.62,11.37-4.2,18.95-10.62,23.42-26.71,9.04-32.53,20.79-64.63,25.22-98.1,2.58-19.52,11.98-34.79,13.9-53.78.85-8.41,1.46-12.93-6.69-13.31-3.19-.15-7.18-.94-7.82-5.79-.61-4.55,3.18-6.01,5.76-7.11,14.13-6.03,20.64-18.98,22.91-36.22.52-3.97,1.66-7.82,2.67-11.67,2.22-8.48,4.74-16.84-7.21-16-2.39.17-5.6-1.32-6.27-4.96-.83-4.51,2.31-6.94,4.93-8.01,21.23-8.74,20.78-32.8,25.49-53.27,1.02-4.43-.48-5.63-3.81-5.98-2.93-.31-5.92-1.05-8.68-2.27-5.24-2.32-6.21-5.78-1.12-10.04.27-.23.55-.5.86-.6,20.33-6.5,23.96-27.24,27.76-48.17,1.29-7.14.16-10.73-6.01-11.73-3.76-.61-8.98-.68-9.18-6.83-.18-5.42,4.42-8.09,8.12-9.39,11.04-3.89,15.42-13.54,17.7-26.39,1.43-8.07.6-12.51-6.7-13.41-2.78-.34-6.69.05-7.48-4.26-.88-4.83,3.28-5.74,5.75-6.92,12.45-5.94,17.74-18.03,20.67-33.04,1.28-6.54,1.16-9.25-4.99-10.44-11.31-2.2-12.76-7.59-4.66-17.82,10.83-13.67,22.7-26.26,24.23-47.04.33-4.56,2.75-9.64-3.45-11.54-5.13-1.57-4.85-5.64-2.14-10.1,9.13-15.02,12.27-32.96,16.35-50.44,4.45-19.06,8.8-38.16,13.32-57.2,3.52-14.78,5.81-29.46,5.85-45.22.1-47.82,35.94-75.73,71.99-56.97,22.82,11.88,39.7,33.35,56.44,54.59,67.27,85.32,141.64,160.47,218.73,231.92,49.53,45.91,101.19,88.41,147.7,139.18,30.69,33.51,60.02,68.39,81.21,112.16,6.09,12.57,11.14,25.69,13.87,40.06.8,4.23.93,7.52-1.86,10.98-6.19,7.67-9.1,17.5-11.77,27.65-8.21,31.18-16.72,62.24-25.41,93.22-3.81,13.61-14.76,13.74-23.6,15.87-12.74,3.07-25.55.98-38.1-3.84-44.54-17.1-79.84-51.23-111.95-91.09-40.33-50.06-73.32-107.33-106.25-164.58-44.16-76.77-85.35-156.1-132.87-229.95-19.06-29.62-39.84-57.36-61.83-83.76-12.95-15.54-28.6-25.58-44.93-34.09Z"/>
    <path class="cls-3" d="M1130.02,645.95c-7.95-27.75-18.62-52.92-22.51-80.8-1.28-9.14-2.82-18.34-3.03-27.55-.53-22.67,4.86-32.06,22.66-37.81,24.58-7.95,49.43-14.62,74.65-18.95,40.55-6.97,80.92-16,122.09-15.52,9.99.12,17.74-.63,26.98,4.23,7.43,3.91,12.27,4.9,10.88,14.87-2.75,19.69-2.14,10.69-7.05,29.54-6.73,25.85-5.75,64.36,1.92,92.27,8.32,27.34,32.73,61.1,43.43,86.36,8.28,19.56-47.35,62.45-61.99,75.03-2.63,2.26-4.85,2.35-6.95-.56-1.3-1.81-2.65-3.73-3.48-5.88-8.84-22.82-11.73-19.35-27.77-7.38-9.01,6.72-18.3,13.53-25.87,22.35-10.77,12.55-22.25,12.83-34.67,6.8-6.95-3.37-9.45-2.58-9.31,7.55.19,13.68-6.1,24.42-13.07,34.45-9.38,13.52-20.87,23.51-33.97,30.84-6.43,3.59-10.6,4.02-12.25-7.33-3.34-22.95-17.02-36.28-34-41.25-19.38-5.67-37.43-15.57-56.47-22.14-22.61-7.8-45.27-14.87-68.6-18.51-4.51-.7-10.83-1.24-11.52-6.63-.63-4.96,5.67-7.04,9.42-9.12,24.44-13.54,48.58-27.65,68.94-49.64,4.95-5.35,9.62-11.09,14.33-16.76,1.45-1.74,2.65-4.16,1.3-6.51-1.8-3.12-3.84-1.39-5.99.09-14.09,9.69-27.68,20.44-42.59,28.41-24.31,13-49.51,22.36-75.19,30.13-7.58,2.29-12.9-.06-16.52-8.45-30.15-70-79.24-118.38-127.42-167.83-4.94-5.07-13.94-9.37-12.55-16.87,1.21-6.53,10.75-4.83,16.74-5.86,51.33-8.88,102.82-15.98,154.59-19.78,25.69-1.88,51.33-5.14,77.11-4.64,2.97.06,5.96-.01,8.89.43,13.08,1.97,14.08,3.4,14.57,19.79,1.17,39.2,21.34,91.38,44.27,112.65Z"/>
    <path class="cls-3" d="M823.63,927.34c-19.58,10.89-38.42,15.38-57.01,20.35-91.97,24.61-184.72,25.55-277.89,12.98-54.93-7.42-109.28-18.42-161.99-39.43-22.6-9.01-22.31-9.2-15.92-36.72,17.34-74.7,34.77-149.38,51.4-224.31,2.66-12,7.49-17.31,16.65-20.1,61.89-18.83,124.36-34.34,186.95-49.15,5.3-1.25,8.75,1.16,12.04,5.82,8.89,12.62,16.06,26.74,23.65,40.46,28.58,51.64,58.83,101.78,89.92,151.17,7.11,11.3,6.6,13.77-4.47,18.45-40.1,16.95-81.71,26.53-123.21,36.09-56.8,13.08-114.2,20.96-171.93,25.26-12.52.93-25.01,1.43-37.52,2-3.1.14-6.7-.81-9.12,3.67,4.4,5.63,10.2,5.22,15.56,5.73,67.9,6.45,135.19-1.2,202.35-12.89,48.5-8.44,96.03-22.1,142.93-39.14,9.58-3.48,14.89,2.6,20.54,9.7,22.48,28.25,47.29,52.99,74.57,73.96,6.64,5.1,13.54,9.69,22.5,16.08Z"/>
    <path class="cls-3" d="M544.18,272.83c-12.21-13.68-20.71-28.14-30.39-41.27-1.03-1.4-2.3-3.9-1.94-5.28,4.01-15.1,1.5-31.46,6.48-46.43,10.8-32.42,40.79-46.79,68.63-32.26,16.25,8.48,28.18,23.69,39.95,39.12,28.91,37.9,54.45,79.29,81.9,118.71,38.63,55.48,80.72,107.06,120.72,160.99,8.67,11.69,17.04,23.71,25.58,35.55,4.06,5.63,3.41,9.15-2.95,10.17-16.65,2.66-33.31,5.25-49.95,7.96-4.63.75-8.44-1.52-12-4.56-56.92-48.71-113.11-98.63-164.42-156.15-17.85-20.01-28.98-47.18-46.19-68.09-7.29-8.85-14.19-18.06-23-24.79-5.92-4.51-12.26-13.1-12.43,6.33Z"/>
    <path class="cls-3" d="M204.36,888.37c-20.16-6.08-40.45-11.56-60.44-18.38-23.21-7.93-46.09-17.21-66.98-32.52-7.98-5.85-15.45-12.48-21.69-20.98-10.7-14.57-10.24-27.95,1.65-41.13,18.24-20.21,40.8-31.15,62.97-42.55,40.51-20.83,82.69-35.72,124.74-50.99,9.76-3.55,14.39,2.64,11.73,14.88-2.83,13.03-8.72,24.38-13.17,36.52-1.61,4.39-4.71,9.2-2.76,13.68,5.99,13.75-.02,25.03-4.16,36.67-2.76,7.76-6.1,15.24-9.49,22.63-3.74,8.14-6.18,15.93-1.12,24.82,2.04,3.59,2.48,8.03.79,12.7-3.86,10.71-7.1,21.72-9.4,33.13-1.57,7.78-5.74,11.56-12.65,11.51Z"/>
    <path class="cls-3" d="M860.84,1056.34c8.64,0,17.3.38,25.93-.11,7.61-.44,12.76-4.95,16.1-15.05,14.53-43.91,24.03-89.99,35.05-135.43,7.18-29.62,12.69-60.05,24.09-87.69.44-1.07,1.34-2.34,1.16-3.23-2.22-11.25.88-20.25,7.66-26.47,8.66-7.95,18.81-10.37,29.18-8.45,21.35,3.95,42.65,8.27,63.47,16.07,26.68,10,53.38,19.95,80.24,29.12,7.46,2.55,10.24,8.78,10.92,17.1.73,9.03-1.72,16.59-8.84,20.52-9.64,5.32-19.87,5.62-29.98,6.13-40.54,2.06-79.76-8.94-118.58-22.41-8.31-2.88-11.36-1.94-13.59,9.78-11.39,59.66-25.12,118.39-44.24,174.71-2.26,6.65-5.3,12.89-7.16,19.7-8.44,30.91-27.14,39.34-49.7,40.26-11.49.47-22.74-1.57-34.03-3.68-7.05-1.32-14.14-2.25-21.22-1.09-8.6,1.41-16.24,5.11-19.71,17-.87,2.98-1.72,6.66-5.05,5.37-3.01-1.17-2.96-5.27-2.85-8.15.57-15.76,6.13-27.54,16.83-35.21,14.03-10.06,29.27-8.34,44.36-8.78Z"/>
    <path class="cls-3" d="M1676.39,1088.11c-22.2,1.1-41.63,5.23-61.57,5.2-30.12-.04-52.32-10.44-66.74-38.87-25.92-51.09-45.76-104.37-62.38-158.97-6.21-20.4-5.73-20.56-27.08-23.11-34.96-4.18-69.93-8.33-104.05-17.43-18.02-4.8-35.7-10.64-51.9-20.13-4.87-2.85-9.65-6.04-13.94-9.68-24-20.39-24.02-30.88-.36-50.45,3.12-2.58,6.26-5.16,9.57-7.47,12.53-8.75,16.27-8.07,23.08,5.62,4.56,9.16,12.76,11.87,21.4,14.23,38.63,10.55,77.7,19.46,115.93,31.51,12.76,4.02,25.27,8.6,37.37,14.3,9.3,4.38,14.32,10.59,16.41,21.79,2.46,13.19,9.78,25.44,14.66,38.23,16.87,44.19,31.25,89.34,50.64,132.57,2.65,5.9,5.94,11.53,8.41,17.5,5.22,12.64,14.79,16.86,27.95,16.73,22.24-.22,44.56-1.86,66.68,2.01,21.82,3.81,38.38,20.04,39.16,38.75.16,3.82,1.53,9.05-3.22,10.74-5.6,2-5.96-3.89-7.89-7.08-7.94-13.13-20.67-15.78-32.14-15.99Z"/>
    <path class="cls-3" d="M428.36,599.44c-4.55.45-6.44-2.18-5.69-7.29.81-5.54,1.89-11.06,3.27-16.43,12.91-50.51,26.05-100.93,38.73-151.53,2.3-9.17,4.41-10.63,9.45-2.82,9.62,14.92,19.39,29.69,29.04,44.58,2.09,3.22,2.9,6.19,1.61,10.95-8.6,31.81-16.86,63.76-24.81,95.83-2.27,9.14-6.29,14.28-14,16.17-12.6,3.1-25.07,6.98-37.6,10.53Z"/>
    <path class="cls-3" d="M1554.23,510.03c94.08-174.5,166.33-310.51,286.04-363.39,119.71-52.88-10.5-25.67-39.95-5.84-29.44,19.83-105.85,70.9-259.47,355.12l19.13,14.11"/>
    <path class="cls-3" d="M1460.35,435.56c116.87,6.54,161.18,18.32,173.06,136.13,11.87,117.8-5.84,323.3-190.04,125.65-184.21-197.64,16.99-261.78,16.99-261.78Z"/>
    <circle class="cls-2" cx="1481.04" cy="580.05" r="59.81"/>
    <g>
      <path class="cls-1" d="M1417.3,409.65l-4.29,27.4s36.15,32.37,109.69,41.04c71.69,8.45,99.26-10.34,99.26-10.34l3.97-25.43c-17.94,7.62-55.65,10.24-70.73,9.5-17.14-.83-34.57-1.53-62.2-7.7-49.45-11.05-75.69-34.46-75.69-34.46,0,0,11.9-44.35,13.41-99.52,1.59-58.02,1.59-81.91,1.59-81.91,0,0,45.43-13.09,112.24-2.62,93.82,14.7,120.43,34.27,120.43,34.27,0,0-14.64,52.81-23.31,93.72-8.06,38.05-15.74,88.75-15.74,88.75,0,0,67.89,6.85,64.68,30.08-3.98,28.74-83.16,39.83-191.12,22.91-38.19-5.99-71.19-15.73-96.53-26.9-35.99-15.88-56.55-34.65-54.65-49.69,3.04-24.04,68.99-9.09,68.99-9.09Z"/>
      <path class="cls-2" d="M1626.98,439.87c-16.92,5.63-151.5,14.67-209.09-33.43l-5.24,32.84s-11.62-8.71,0,0c24.89,18.66,120.18,63.49,208.53,31.09l5.8-30.5Z"/>
    </g>
    <path class="cls-3" d="M1528.38,392.85c49.48-191.46,49.84-257.35,155.05-338.9,105.21-81.55,7.19-61.19-37.73-1.47-34.53,45.9-77.63,78.39-134.08,330.3l22.46,8.58"/>
  </g>
</svg>