<?xml version="1.0" encoding="UTF-8"?>
<svg id="Layer_2" data-name="Layer 2" xmlns="http://www.w3.org/2000/svg" viewBox="0 0 3289.82 658.25">
  <defs>
    <style>
      .cls-1 {
        fill: #1d2b1d;
      }

      .cls-2 {
        fill: #fff;
      }

      .cls-3 {
        fill: #0d6036;
      }
    </style>
  </defs>
  <g id="Layer_1-2" data-name="Layer 1">
    <g>
      <g>
        <path class="cls-3" d="M236.82,184.41c1.21,20.53-2.74,40.14-5.95,59.71-9.72,59.2-22.45,117.5-35.27,175.79-12.12,55.06-25.74,109.57-38.46,164.42-1.87,8.06-3.31,16.27-5.25,24.3-2.4,9.94-8.45,15.58-16.48,15.59-12.06.03-23.01,4.93-34.26,8.86-14.7,5.14-29.44,10.38-44.99,5.98-6.47-1.83-12.82-4.46-19.36-5.77-13.13-2.62-24.5.9-31.79,16.05-.71,1.48-1.32,3.18-3.03,2.69-1.99-.57-1.86-2.7-1.95-4.62-.55-11.11,7.08-24.78,16.65-29.83,7.53-3.98,15.46-5.13,23.55-4.71,24.3,1.24,48.01-2.61,71.07-12.14.37-.15.76-.23,1.14-.37,6.73-2.49,11.22-6.29,13.87-15.82,5.35-19.26,12.31-38.27,14.93-58.09,1.53-11.56,7.1-20.6,8.23-31.85.5-4.98.87-7.66-3.96-7.88-1.89-.09-4.25-.56-4.63-3.43-.36-2.7,1.88-3.56,3.41-4.21,8.37-3.57,12.22-11.24,13.56-21.45.31-2.35.99-4.63,1.58-6.91,1.32-5.02,2.81-9.97-4.27-9.47-1.42.1-3.32-.78-3.71-2.94-.49-2.67,1.37-4.11,2.92-4.74,12.57-5.17,12.31-19.42,15.1-31.54.6-2.63-.29-3.34-2.25-3.54-1.74-.18-3.51-.62-5.14-1.34-3.1-1.37-3.67-3.42-.66-5.95.16-.14.33-.3.51-.36,12.04-3.85,14.19-16.13,16.44-28.53.77-4.23.09-6.35-3.56-6.95-2.23-.36-5.32-.4-5.44-4.04-.1-3.21,2.62-4.79,4.81-5.56,6.54-2.3,9.13-8.02,10.48-15.63.84-4.78.35-7.41-3.97-7.94-1.65-.2-3.96.03-4.43-2.52-.52-2.86,1.95-3.4,3.4-4.09,7.37-3.52,10.51-10.67,12.24-19.56.76-3.87.69-5.48-2.95-6.18-6.7-1.3-7.56-4.49-2.76-10.55,6.41-8.1,13.44-15.55,14.35-27.86.2-2.7,1.63-5.71-2.04-6.83-3.04-.93-2.87-3.34-1.27-5.98,5.41-8.89,7.26-19.52,9.68-29.87,2.64-11.29,5.21-22.6,7.89-33.87,2.08-8.75,3.44-17.44,3.46-26.78.06-28.32,21.29-44.85,42.63-33.74,13.52,7.03,23.51,19.75,33.42,32.33,39.84,50.53,83.87,95.03,129.52,137.34,29.33,27.19,59.93,52.36,87.46,82.42,18.18,19.84,35.54,40.5,48.09,66.42,3.61,7.45,6.6,15.22,8.21,23.72.48,2.5.55,4.45-1.1,6.5-3.66,4.54-5.39,10.36-6.97,16.38-4.86,18.46-9.9,36.86-15.05,55.2-2.26,8.06-8.74,8.14-13.98,9.4-7.54,1.82-15.13.58-22.56-2.27-26.38-10.13-47.28-30.34-66.29-53.94-23.88-29.64-43.42-63.56-62.92-97.46-26.15-45.46-50.54-92.44-78.68-136.17-11.29-17.54-23.59-33.97-36.61-49.6-7.67-9.2-16.94-15.15-26.6-20.19Z"/>
        <path class="cls-3" d="M669.17,382.52c-4.71-16.43-11.02-31.34-13.33-47.85-.76-5.41-1.67-10.86-1.79-16.31-.31-13.42,2.88-18.99,13.42-22.39,14.56-4.71,29.27-8.66,44.21-11.22,24.01-4.13,47.92-9.47,72.3-9.19,5.92.07,10.51-.37,15.98,2.5,4.4,2.31,7.27,2.9,6.44,8.81-1.63,11.66-1.27,6.33-4.17,17.49-3.99,15.31-3.4,38.11,1.13,54.64,4.93,16.19,19.38,36.18,25.72,51.14,4.9,11.58-28.04,36.98-36.71,44.43-1.56,1.34-2.87,1.39-4.12-.33-.77-1.07-1.57-2.21-2.06-3.48-5.23-13.51-6.95-11.46-16.45-4.37-5.34,3.98-10.84,8.01-15.32,13.23-6.38,7.43-13.18,7.6-20.53,4.03-4.12-2-5.6-1.53-5.52,4.47.11,8.1-3.61,14.46-7.74,20.4-5.55,8-12.36,13.92-20.12,18.26-3.8,2.13-6.28,2.38-7.25-4.34-1.98-13.59-10.08-21.48-20.14-24.43-11.48-3.36-22.17-9.22-33.44-13.11-13.39-4.62-26.81-8.81-40.62-10.96-2.67-.42-6.41-.73-6.82-3.93-.38-2.93,3.36-4.17,5.58-5.4,14.47-8.02,28.77-16.37,40.82-29.39,2.93-3.17,5.7-6.57,8.49-9.93.86-1.03,1.57-2.46.77-3.85-1.06-1.85-2.27-.82-3.54.05-8.35,5.74-16.39,12.1-25.22,16.82-14.39,7.7-29.32,13.24-44.53,17.84-4.49,1.36-7.64-.03-9.78-5-17.85-41.45-46.93-70.1-75.46-99.38-2.93-3-8.25-5.55-7.43-9.99.71-3.87,6.37-2.86,9.91-3.47,30.4-5.26,60.89-9.46,91.55-11.71,15.21-1.11,30.39-3.05,45.66-2.75,1.76.03,3.53,0,5.26.26,7.74,1.17,8.34,2.02,8.63,11.72.69,23.21,12.64,54.11,26.22,66.71Z"/>
        <path class="cls-3" d="M487.73,549.15c-11.59,6.45-22.75,9.11-33.76,12.05-54.46,14.57-109.39,15.13-164.56,7.68-32.53-4.39-64.71-10.91-95.92-23.35-13.38-5.33-13.21-5.45-9.43-21.74,10.27-44.24,20.59-88.46,30.44-132.83,1.58-7.1,4.43-10.25,9.86-11.9,36.65-11.15,73.64-20.33,110.71-29.1,3.14-.74,5.18.69,7.13,3.45,5.26,7.47,9.51,15.83,14.01,23.96,16.92,30.58,34.84,60.27,53.25,89.52,4.21,6.69,3.91,8.15-2.65,10.92-23.75,10.04-48.39,15.71-72.96,21.37-33.63,7.75-67.62,12.41-101.81,14.96-7.41.55-14.81.85-22.22,1.18-1.83.08-3.97-.48-5.4,2.18,2.61,3.33,6.04,3.09,9.22,3.4,40.21,3.82,80.06-.71,119.83-7.63,28.72-5,56.87-13.09,84.64-23.18,5.68-2.06,8.81,1.54,12.16,5.74,13.31,16.73,28.01,31.38,44.16,43.8,3.93,3.02,8.02,5.74,13.32,9.52Z"/>
        <path class="cls-3" d="M322.25,161.56c-7.23-8.1-12.26-16.67-17.99-24.44-.61-.83-1.36-2.31-1.15-3.12,2.38-8.94.89-18.63,3.84-27.49,6.39-19.2,24.16-27.71,40.64-19.11,9.62,5.02,16.69,14.03,23.66,23.17,17.12,22.45,32.24,46.96,48.5,70.3,22.88,32.85,47.8,63.4,71.49,95.33,5.13,6.92,10.09,14.04,15.15,21.05,2.4,3.33,2.02,5.42-1.74,6.02-9.86,1.58-19.72,3.11-29.58,4.71-2.74.45-5-.9-7.1-2.7-33.71-28.85-66.98-58.41-97.37-92.47-10.57-11.85-17.16-27.94-27.35-40.32-4.31-5.24-8.4-10.69-13.62-14.68-3.5-2.67-7.26-7.76-7.36,3.75Z"/>
        <path class="cls-3" d="M121.02,526.07c-11.94-3.6-23.95-6.84-35.79-10.89-13.75-4.69-27.29-10.19-39.66-19.26-4.73-3.47-9.15-7.39-12.84-12.42-6.33-8.63-6.07-16.55.97-24.35,10.8-11.97,24.16-18.44,37.29-25.19,23.99-12.33,48.97-21.15,73.87-30.19,5.78-2.1,8.52,1.57,6.94,8.81-1.68,7.71-5.16,14.44-7.8,21.62-.95,2.6-2.79,5.45-1.63,8.1,3.55,8.14-.01,14.83-2.46,21.71-1.64,4.59-3.61,9.02-5.62,13.4-2.21,4.82-3.66,9.43-.67,14.7,1.21,2.13,1.47,4.75.47,7.52-2.29,6.34-4.2,12.86-5.57,19.62-.93,4.61-3.4,6.84-7.49,6.81Z"/>
        <path class="cls-3" d="M509.77,625.54c5.12,0,10.24.23,15.35-.07,4.51-.26,7.55-2.93,9.53-8.92,8.61-26,14.23-53.29,20.76-80.2,4.25-17.54,7.51-35.56,14.26-51.93.26-.63.79-1.39.69-1.91-1.31-6.66.52-11.99,4.53-15.68,5.13-4.71,11.14-6.14,17.28-5,12.64,2.34,25.26,4.9,37.58,9.52,15.8,5.92,31.61,11.81,47.51,17.24,4.42,1.51,6.07,5.2,6.46,10.12.43,5.35-1.02,9.83-5.24,12.15-5.71,3.15-11.76,3.33-17.76,3.63-24.01,1.22-47.23-5.29-70.22-13.27-4.92-1.71-6.72-1.15-8.05,5.79-6.75,35.33-14.88,70.11-26.2,103.46-1.34,3.94-3.14,7.63-4.24,11.67-5,18.31-16.07,23.29-29.43,23.84-6.8.28-13.47-.93-20.15-2.18-4.18-.78-8.37-1.33-12.57-.64-5.09.83-9.62,3.03-11.67,10.07-.52,1.77-1.02,3.94-2.99,3.18-1.79-.69-1.75-3.12-1.69-4.82.34-9.33,3.63-16.31,9.97-20.85,8.31-5.96,17.33-4.94,26.27-5.2Z"/>
        <path class="cls-3" d="M992.71,644.35c-13.14.65-24.65,3.1-36.46,3.08-17.83-.03-30.98-6.18-39.52-23.02-15.35-30.25-27.1-61.8-36.94-94.14-3.68-12.08-3.39-12.17-16.04-13.69-20.7-2.48-41.41-4.94-61.62-10.32-10.67-2.84-21.14-6.3-30.73-11.92-2.88-1.69-5.71-3.57-8.26-5.74-14.21-12.07-14.23-18.28-.21-29.87,1.85-1.53,3.71-3.05,5.67-4.42,7.42-5.18,9.63-4.78,13.67,3.33,2.7,5.43,7.55,7.03,12.67,8.42,22.88,6.25,46.01,11.52,68.65,18.66,7.56,2.38,14.96,5.09,22.13,8.47,5.51,2.59,8.48,6.27,9.71,12.9,1.46,7.81,5.79,15.07,8.68,22.64,9.99,26.17,18.5,52.91,29.99,78.51,1.57,3.5,3.52,6.83,4.98,10.36,3.09,7.49,8.76,9.99,16.55,9.91,13.17-.13,26.38-1.1,39.49,1.19,12.92,2.26,22.73,11.87,23.19,22.95.09,2.26.9,5.36-1.91,6.36-3.32,1.18-3.53-2.3-4.67-4.19-4.7-7.78-12.24-9.35-19.03-9.47Z"/>
        <path class="cls-3" d="M253.67,354.97c-2.69.27-3.81-1.29-3.37-4.31.48-3.28,1.12-6.55,1.93-9.73,7.64-29.91,15.42-59.77,22.94-89.73,1.36-5.43,2.61-6.3,5.6-1.67,5.69,8.84,11.48,17.58,17.2,26.4,1.24,1.91,1.72,3.67.95,6.48-5.09,18.84-9.99,37.76-14.69,56.75-1.34,5.41-3.73,8.45-8.29,9.58-7.46,1.84-14.85,4.13-22.26,6.23Z"/>
        <path class="cls-3" d="M920.37,302.03c55.71-103.33,98.5-183.88,169.39-215.19,70.89-31.31-6.22-15.2-23.66-3.46-17.44,11.74-62.68,41.99-153.65,210.29l11.33,8.36"/>
        <path class="cls-3" d="M864.79,257.93c69.21,3.88,95.45,10.85,102.48,80.61,7.03,69.76-3.46,191.45-112.54,74.41-109.08-117.04,10.06-155.02,10.06-155.02Z"/>
        <circle class="cls-2" cx="877.03" cy="343.49" r="35.42"/>
        <g>
          <path class="cls-1" d="M839.29,242.58l-2.54,16.22s21.4,19.17,64.96,24.3c42.46,5,58.78-6.13,58.78-6.13l2.35-15.06c-10.62,4.51-32.95,6.06-41.89,5.63-10.15-.49-20.47-.9-36.83-4.56-29.28-6.54-44.82-20.41-44.82-20.41,0,0,7.05-26.26,7.94-58.93.94-34.36.94-48.51.94-48.51,0,0,26.9-7.75,66.47-1.55,55.56,8.71,71.32,20.3,71.32,20.3,0,0-8.67,31.27-13.8,55.5-4.77,22.53-9.32,52.56-9.32,52.56,0,0,40.2,4.06,38.3,17.81-2.36,17.02-49.25,23.59-113.17,13.57-22.62-3.54-42.16-9.31-57.16-15.93-21.32-9.4-33.49-20.52-32.36-29.43,1.8-14.24,40.86-5.38,40.86-5.38Z"/>
          <path class="cls-2" d="M963.46,260.48c-10.02,3.33-89.71,8.69-123.82-19.8l-3.1,19.45s-6.88-5.16,0,0c14.74,11.05,71.17,37.59,123.49,18.41l3.43-18.06Z"/>
        </g>
        <path class="cls-3" d="M905.07,232.63c29.3-113.38,29.51-152.4,91.82-200.69,62.3-48.29,4.26-36.24-22.35-.87-20.45,27.18-45.97,46.42-79.4,195.6l13.3,5.08"/>
      </g>
      <g>
        <path class="cls-1" d="M1156.11,580.96h78.97c16.37,0,30.36-5.7,41.97-17.1,11.6-11.4,17.41-25.18,17.41-41.35V204.15h65.29v319.29c0,22.59-5.6,43.17-16.79,61.71-11.19,18.55-26.22,33.37-45.08,44.46-18.86,11.09-39.8,16.63-62.8,16.63h-78.97v-65.29Z"/>
        <path class="cls-1" d="M1433.12,236.48c0-11.19,3.93-20.72,11.81-28.6,7.87-7.88,17.41-11.81,28.6-11.81s20.72,3.94,28.6,11.81c7.87,7.88,11.81,17.41,11.81,28.6s-3.94,20.73-11.81,28.6c-7.88,7.88-17.41,11.81-28.6,11.81s-20.73-3.93-28.6-11.81c-7.88-7.87-11.81-17.41-11.81-28.6ZM1440.58,324.15h65.91v322.09h-65.91v-322.09Z"/>
        <path class="cls-1" d="M1581.11,389.75c0-18.03,6.42-33.47,19.28-46.32,12.85-12.85,28.39-19.28,46.63-19.28h98.25c26.53,0,48.29,8.29,65.29,24.87,16.58-16.58,38.34-24.87,65.29-24.87h48.5c21.35,0,40.83,5.24,58.45,15.7,17.61,10.47,31.66,24.46,42.13,41.97,10.46,17.52,15.7,36.95,15.7,58.29v206.13h-65.29v-205.19c0-14.3-4.97-26.47-14.92-36.53-9.95-10.05-21.97-15.08-36.06-15.08h-48.5c-9.12,0-16.9,2.85-23.32,8.55-6.43,5.7-9.64,12.59-9.64,20.67v227.58h-65.6v-227.58c0-8.08-3.11-14.97-9.33-20.67-6.22-5.7-13.79-8.55-22.7-8.55h-98.56v256.8h-65.6v-256.49Z"/>
        <path class="cls-1" d="M2107.78,236.48c0-11.19,3.93-20.72,11.81-28.6,7.87-7.88,17.41-11.81,28.6-11.81s20.72,3.94,28.6,11.81c7.88,7.88,11.81,17.41,11.81,28.6s-3.94,20.73-11.81,28.6c-7.88,7.88-17.41,11.81-28.6,11.81s-20.73-3.93-28.6-11.81c-7.88-7.87-11.81-17.41-11.81-28.6ZM2115.24,324.15h65.91v322.09h-65.91v-322.09Z"/>
        <path class="cls-1" d="M2255.76,389.44c0-18.03,6.48-33.42,19.43-46.17,12.95-12.75,28.55-19.12,46.79-19.12h113.48c21.34,0,40.83,5.24,58.45,15.7,17.61,10.47,31.66,24.51,42.13,42.13,10.46,17.62,15.7,37.1,15.7,58.45v205.82h-65.6v-204.88c0-14.5-4.93-26.84-14.77-37-9.85-10.15-21.82-15.23-35.91-15.23h-114.1v257.11h-65.6v-256.8Z"/>
        <path class="cls-1" d="M2626.36,390.69c0-18.44,6.73-34.15,20.21-47.1,13.47-12.95,29.64-19.43,48.5-19.43h134.31c17.2,0,32.8,4.2,46.79,12.59,13.99,8.39,25.18,19.69,33.58,33.89,8.39,14.2,12.59,29.9,12.59,47.1v9.02c0,17-4.2,32.49-12.59,46.48-8.39,13.99-19.59,25.18-33.58,33.58-13.99,8.39-29.59,12.59-46.79,12.59h-100.11v-65.29h100.73c7.46,0,13.83-2.69,19.12-8.08,5.29-5.39,7.93-11.92,7.93-19.59v-8.71c0-7.88-2.64-14.51-7.93-19.9-5.29-5.39-11.66-8.08-19.12-8.08h-138.04v165.4c0,7.05,2.38,13.06,7.15,18.03,4.77,4.97,10.57,7.46,17.41,7.46h183.12v65.6h-183.12c-16.58,0-31.71-4.09-45.39-12.28-13.68-8.19-24.56-19.17-32.64-32.96-8.08-13.78-12.13-28.96-12.13-45.55v-164.78Z"/>
        <path class="cls-1" d="M2993.84,390.69c0-18.44,6.73-34.15,20.21-47.1,13.47-12.95,29.64-19.43,48.5-19.43h134.31c17.2,0,32.8,4.2,46.79,12.59,13.99,8.39,25.18,19.69,33.58,33.89,8.39,14.2,12.59,29.9,12.59,47.1v9.02c0,17-4.2,32.49-12.59,46.48-8.39,13.99-19.59,25.18-33.58,33.58-13.99,8.39-29.59,12.59-46.79,12.59h-100.11v-65.29h100.73c7.46,0,13.83-2.69,19.12-8.08,5.29-5.39,7.93-11.92,7.93-19.59v-8.71c0-7.88-2.64-14.51-7.93-19.9-5.29-5.39-11.66-8.08-19.12-8.08h-138.04v165.4c0,7.05,2.38,13.06,7.15,18.03,4.77,4.97,10.57,7.46,17.41,7.46h183.12v65.6h-183.12c-16.58,0-31.71-4.09-45.39-12.28-13.68-8.19-24.56-19.17-32.64-32.96-8.08-13.78-12.13-28.96-12.13-45.55v-164.78Z"/>
      </g>
    </g>
  </g>
</svg>